<svg width="32" height="32" viewBox="0 0 32 32" fill="none" xmlns="http://www.w3.org/2000/svg">
<circle cx="16" cy="16" r="11" stroke="#1076E4" stroke-width="2" stroke-linecap="round"/>
<mask id="path-3-inside-1" fill="white">
<path fill-rule="evenodd" clip-rule="evenodd" d="M22.9007 25.8186C25.985 23.6469 28 20.0588 28 16C28 9.37258 22.6274 4 16 4C9.37258 4 4 9.37258 4 16C4 20.0588 6.01503 23.6469 9.09928 25.8186C9.66078 22.5152 12.5367 20 16 20C19.4633 20 22.3392 22.5152 22.9007 25.8186Z"/>
</mask>
<path d="M22.9007 25.8186L20.929 26.1537L21.4602 29.2789L24.0522 27.4539L22.9007 25.8186ZM9.09928 25.8186L7.94784 27.4539L10.5398 29.2789L11.071 26.1537L9.09928 25.8186ZM26 16C26 19.3807 24.3243 22.3701 21.7493 24.1833L24.0522 27.4539C27.6456 24.9237 30 20.7369 30 16H26ZM16 6C21.5228 6 26 10.4772 26 16H30C30 8.26801 23.732 2 16 2V6ZM6 16C6 10.4772 10.4772 6 16 6V2C8.26801 2 2 8.26801 2 16H6ZM10.2507 24.1833C7.67567 22.3701 6 19.3807 6 16H2C2 20.7369 4.3544 24.9237 7.94784 27.4539L10.2507 24.1833ZM11.071 26.1537C11.4718 23.7956 13.5282 22 16 22V18C11.5451 18 7.84974 21.2347 7.12756 25.4834L11.071 26.1537ZM16 22C18.4718 22 20.5282 23.7956 20.929 26.1537L24.8724 25.4834C24.1503 21.2347 20.4549 18 16 18V22Z" fill="#1076E4" mask="url(#path-3-inside-1)"/>
<circle cx="16" cy="13" r="3" stroke="#1076E4" stroke-width="2" stroke-linecap="round"/>
</svg>
