<?xml version="1.0"?>
<svg xmlns="http://www.w3.org/2000/svg" xmlns:xlink="http://www.w3.org/1999/xlink" version="1.1" id="Capa_1" x="0px" y="0px" viewBox="0 0 512 512" style="enable-background:new 0 0 512 512;" xml:space="preserve" width="512px" height="512px" class=""><g><path d="M320,85.333h64c5.891,0,10.667-4.776,10.667-10.667v-64C394.667,4.776,389.891,0,384,0h-64  c-64.772,0.071-117.263,52.561-117.333,117.333V192H128c-5.891,0-10.667,4.776-10.667,10.667v64c0,5.891,4.776,10.667,10.667,10.667  h74.667v224c0,5.891,4.776,10.667,10.667,10.667h64c5.891,0,10.667-4.776,10.667-10.667v-224h74.667  c4.589-0.003,8.662-2.942,10.112-7.296l21.333-64c1.862-5.589-1.16-11.629-6.749-13.491c-1.084-0.361-2.22-0.546-3.363-0.547h-96  v-74.667C288,99.66,302.327,85.333,320,85.333z" data-original="#2196F3" class="active-path" data-old_color="#2196F3" fill="#FFFFFF"/></g> </svg>
