<?xml version="1.0" encoding="UTF-8" standalone="no"?><!DOCTYPE svg PUBLIC "-//W3C//DTD SVG 1.1//EN" "http://www.w3.org/Graphics/SVG/1.1/DTD/svg11.dtd"><svg width="100%" height="100%" viewBox="0 0 1200 1200" version="1.1" xmlns="http://www.w3.org/2000/svg" xmlns:xlink="http://www.w3.org/1999/xlink" xml:space="preserve" xmlns:serif="http://www.serif.com/" style="fill-rule:evenodd;clip-rule:evenodd;stroke-linejoin:round;stroke-miterlimit:2;"><path d="M1171.23,488.525c7.422,39.73 11.497,81.351 11.497,124.864c0,339.662 -227.388,581.239 -570.834,581.239c-328.53,0 -594.628,-266.098 -594.628,-594.628c0,-328.53 266.098,-594.628 594.628,-594.628c160.59,0 294.694,59.084 397.656,154.987l-167.649,167.649l0,-0.364c-62.431,-59.448 -141.599,-89.936 -230.007,-89.936c-196.245,0 -355.671,165.756 -355.671,362.001c0,196.172 159.426,362.365 355.671,362.365c177.981,0 299.133,-101.87 324.091,-241.577l-324.091,0l0,-231.899l559.337,-0.073Z" style="fill:#fff;fill-rule:nonzero;"/></svg>